<svg>
  <symbol xmlns="http://www.w3.org/2000/svg" viewBox="0 0 473.8 473.8" id="package">
    <path d="M454.8 111.7c0-1.8-.4-3.6-1.2-5.3-1.6-3.4-4.7-5.7-8.1-6.4L241.8 1.2c-3.3-1.6-7.2-1.6-10.5 0L25.6 100.9c-4 1.9-6.6 5.9-6.8 10.4V362c0 4.6 2.6 8.8 6.8 10.8l205.7 99.7c.1 0 .1 0 .2.1.3.1.6.2.9.4.1 0 .2.1.4.1l.9.3c.1 0 .2.1.3.1.3.1.7.1 1 .2h.3c.4 0 .9.1 1.3.1s.9 0 1.3-.1h.3c.3 0 .7-.1 1-.2.1 0 .2-.1.3-.1l.9-.3c.1 0 .2-.1.4-.1.3-.1.6-.2.9-.4.1 0 .1 0 .2-.1l206.3-100c4.1-2 6.8-6.2 6.8-10.8V112c-.2-.1-.2-.2-.2-.3zM236.5 25.3l178.4 86.5-65.7 31.9-178.4-86.5 65.7-31.9zm0 173L58.1 111.8l85.2-41.3L321.7 157l-85.2 41.3zM42.8 131.1l181.7 88.1v223.3L42.8 354.4V131.1zm205.7 311.4V219.2l85.3-41.4v58.4c0 6.6 5.4 12 12 12s12-5.4 12-12v-70.1l73-35.4V354l-182.3 88.5z"></path>
  </symbol>
</svg>
<svg>
  <symbol xmlns="http://www.w3.org/2000/svg" viewBox="0 0 128 128" id="wrench-2">
    <path d="M120.969 87.027l-19.461-19.465C103.063 62.641 104 57.438 104 52c0-28.727-23.281-52-52-52-7.797 0-15.164 1.766-21.805 4.836L64 38.641l-5.359 19.996-20 5.359L4.836 30.195C1.766 36.832 0 44.203 0 52c0 28.727 23.281 52 52 52 5.438 0 10.641-.934 15.57-2.496l19.461 19.465A23.925 23.925 0 0 0 104 128a23.911 23.911 0 0 0 16.969-7.031c9.375-9.371 9.375-24.567 0-33.942zm-5.656 28.286C112.289 118.336 108.273 120 104 120s-8.289-1.664-11.313-4.688l-19.46-19.464a7.998 7.998 0 0 0-5.656-2.344c-.809 0-1.625.125-2.418.371C60.711 95.285 56.285 96 52 96 27.738 96 8 76.262 8 52c0-2.289.18-4.555.531-6.793l24.453 24.445a7.987 7.987 0 0 0 7.726 2.071l20-5.359a7.99 7.99 0 0 0 5.656-5.656l5.359-19.996a7.993 7.993 0 0 0-2.07-7.727L45.207 8.535A43.31 43.31 0 0 1 52 8c24.262 0 44 19.738 44 44 0 4.273-.715 8.699-2.121 13.152a8.001 8.001 0 0 0 1.973 8.066l19.461 19.465C118.336 95.707 120 99.727 120 104s-1.664 8.289-4.687 11.313z"></path>
  </symbol>
</svg>
<svg>
  <symbol xmlns="http://www.w3.org/2000/svg" viewBox="0 0 41.301 41.301" id="clock">
    <path d="M20.642 0c5.698 0 10.857 2.317 14.602 6.047 3.73 3.746 6.047 8.905 6.047 14.603s-2.317 10.857-6.047 14.603c-3.746 3.73-8.904 6.047-14.602 6.047S9.786 38.983 6.056 35.253A20.572 20.572 0 0 1 .008 20.65 20.573 20.573 0 0 1 6.055 6.047 20.576 20.576 0 0 1 20.642 0zm10.524 19.523c.619 0 1.111.508 1.111 1.127s-.492 1.127-1.111 1.127H20.642c-.413 0-.778-.238-.968-.571l-.016-.016-.016-.032v-.016l-.016-.032-.016-.032v-.016l-.016-.032-.016-.016v-.032l-.016-.032v-.016l-.016-.032v-.064l-.016-.016V7.206c0-.619.492-1.111 1.111-1.111s1.127.492 1.127 1.111v12.317h9.398zm2.491-11.888c-3.333-3.333-7.936-5.381-13.015-5.381S10.96 4.301 7.627 7.635A18.408 18.408 0 0 0 2.246 20.65c0 5.079 2.063 9.682 5.381 13.016 3.333 3.333 7.936 5.381 13.015 5.381s9.682-2.048 13.015-5.381a18.355 18.355 0 0 0 5.397-13.016 18.35 18.35 0 0 0-5.397-13.015z"></path>
  </symbol>
</svg>