<svg>
  <symbol xmlns="http://www.w3.org/2000/svg" viewBox="0 0 128 128" id="wrench-2">
    <path d="M120.969 87.027l-19.461-19.465C103.063 62.641 104 57.438 104 52c0-28.727-23.281-52-52-52-7.797 0-15.164 1.766-21.805 4.836L64 38.641l-5.359 19.996-20 5.359L4.836 30.195C1.766 36.832 0 44.203 0 52c0 28.727 23.281 52 52 52 5.438 0 10.641-.934 15.57-2.496l19.461 19.465A23.925 23.925 0 0 0 104 128a23.911 23.911 0 0 0 16.969-7.031c9.375-9.371 9.375-24.567 0-33.942zm-5.656 28.286C112.289 118.336 108.273 120 104 120s-8.289-1.664-11.313-4.688l-19.46-19.464a7.998 7.998 0 0 0-5.656-2.344c-.809 0-1.625.125-2.418.371C60.711 95.285 56.285 96 52 96 27.738 96 8 76.262 8 52c0-2.289.18-4.555.531-6.793l24.453 24.445a7.987 7.987 0 0 0 7.726 2.071l20-5.359a7.99 7.99 0 0 0 5.656-5.656l5.359-19.996a7.993 7.993 0 0 0-2.07-7.727L45.207 8.535A43.31 43.31 0 0 1 52 8c24.262 0 44 19.738 44 44 0 4.273-.715 8.699-2.121 13.152a8.001 8.001 0 0 0 1.973 8.066l19.461 19.465C118.336 95.707 120 99.727 120 104s-1.664 8.289-4.687 11.313z"></path>
  </symbol>
</svg>